<svg xmlns="http://www.w3.org/2000/svg" viewBox="0 0 24 24" width="22px" height="22px">
  <path d="M12 2.2c-2.7 0-3 0.01-4.1 0.06-1.1 0.05-1.9 0.23-2.5 0.49-0.7 0.29-1.3 0.69-1.8 1.2-0.49 0.51-0.88 1.1-1.2 1.8-0.26 0.6-0.44 1.3-0.49 2.5-0.05 1.1-0.06 1.4-0.06 4.1s0.01 3 0.06 4.1c0.05 1.1 0.23 1.9 0.49 2.5 0.29 0.7 0.69 1.3 1.2 1.8 0.51 0.49 1.1 0.88 1.8 1.2 0.6 0.26 1.3 0.44 2.5 0.49 1.1 0.05 1.4 0.06 4.1 0.06s3-0.01 4.1-0.06c1.1-0.05 1.9-0.23 2.5-0.49 0.7-0.29 1.3-0.69 1.8-1.2 0.49-0.51 0.88-1.1 1.2-1.8 0.26-0.6 0.44-1.3 0.49-2.5 0.05-1.1 0.06-1.4 0.06-4.1s-0.01-3-0.06-4.1c-0.05-1.1-0.23-1.9-0.49-2.5-0.29-0.7-0.69-1.3-1.2-1.8-0.51-0.49-1.1-0.88-1.8-1.2-0.6-0.26-1.3-0.44-2.5-0.49-1.1-0.05-1.4-0.06-4.1-0.06zM12 0c2.9 0 3.3 0.01 4.5 0.06 1.2 0.05 2.2 0.23 3 0.5 0.8 0.3 1.5 0.73 2.1 1.3 0.6 0.6 1.1 1.3 1.5 2.1 0.27 0.8 0.46 1.8 0.5 3 0.05 1.2 0.06 1.6 0.06 4.5s-0.01 3.3-0.06 4.5c-0.05 1.2-0.23 2.2-0.5 3-0.3 0.8-0.73 1.5-1.3 2.1-0.6 0.6-1.3 1.1-2.1 1.5-0.8 0.27-1.8 0.46-3 0.5-1.2 0.05-1.6 0.06-4.5 0.06s-3.3-0.01-4.5-0.06c-1.2-0.05-2.2-0.23-3-0.5-0.8-0.3-1.5-0.73-2.1-1.3-0.6-0.6-1.1-1.3-1.5-2.1-0.27-0.8-0.46-1.8-0.5-3-0.05-1.2-0.06-1.6-0.06-4.5s0.01-3.3 0.06-4.5c0.05-1.2 0.23-2.2 0.5-3 0.3-0.8 0.73-1.5 1.3-2.1 0.6-0.6 1.3-1.1 2.1-1.5 0.8-0.27 1.8-0.46 3-0.5 1.2-0.05 1.6-0.06 4.5-0.06zM12 5.4c-3.6 0-6.6 3-6.6 6.6s3 6.6 6.6 6.6 6.6-3 6.6-6.6-3-6.6-6.6-6.6zM12 8.6c1.8 0 3.3 1.5 3.3 3.3s-1.5 3.3-3.3 3.3-3.3-1.5-3.3-3.3 1.5-3.3 3.3-3.3zM18.9 4.3c0.4 0 0.7 0.3 0.7 0.7s-0.3 0.7-0.7 0.7-0.7-0.3-0.7-0.7 0.3-0.7 0.7-0.7z"></path>
</svg>
